<svg xmlns="http://www.w3.org/2000/svg" viewBox="0 0 24 24" fill="none" aria-hidden="true">
  <circle cx="12" cy="12" r="2.5" fill="currentColor"/><path d="M12 4c1.5 2 1.5 4 0 6-1.5-2-1.5-4 0-6zM12 14c1.5 2 1.5 4 0 6-1.5-2-1.5-4 0-6zM4 12c2-1.5 4-1.5 6 0-2 1.5-4 1.5-6 0zM14 12c2-1.5 4-1.5 6 0-2 1.5-4 1.5-6 0zM7 7c2 0 3.5 1 4 3-2 .5-3.5-.5-4-3zM13 14c2 .5 3.5-.5 4-3-2 0-3.5 1-4 3zM17 7c-2 0-3.5 1-4 3 2 .5 3.5-.5 4-3zM7 17c2 0 3.5-1 4-3-2-.5-3.5.5-4 3z" stroke="currentColor" stroke-width="2" stroke-linecap="round" stroke-linejoin="round" fill="none"/>
</svg>
