<svg xmlns="http://www.w3.org/2000/svg" viewBox="0 0 24 24" fill="none" aria-hidden="true">
  <path d="M12 3c.5 2.5 1.5 4 3.5 5.5C13.5 10 12.5 11.5 12 14c-.5-2.5-1.5-4-3.5-5.5C10.5 7 11.5 5.5 12 3z" fill="currentColor"/>
  <path d="M7 14c.3 1.5.9 2.4 2.1 3.3C8.1 18.1 7.4 19 7 20.5c-.3-1.5-.9-2.4-2.1-3.3C6 16.4 6.7 15.5 7 14z" fill="currentColor" opacity="0.75"/>
  <path d="M17 13c.3 1.2.7 1.9 1.7 2.6-.9.7-1.4 1.4-1.7 2.6-.3-1.2-.7-1.9-1.7-2.6.9-.7 1.4-1.4 1.7-2.6z" fill="currentColor" opacity="0.6"/>
</svg>
