<svg xmlns="http://www.w3.org/2000/svg" viewBox="0 0 24 24" fill="none" aria-hidden="true">
  <path d="M12 3c1.2 0 2.2.9 2.4 2.1C16.5 5.4 18 7 18 9c0 .4 0 .7-.1 1.1C19.7 10.6 21 12.1 21 14c0 2.2-1.8 4-4 4H7c-2.2 0-4-1.8-4-4 0-1.9 1.3-3.4 3.1-3.9C6 9.7 6 9.4 6 9c0-2 1.5-3.6 3.6-3.9C9.8 3.9 10.8 3 12 3z" fill="currentColor" opacity="0.35"/>
  <path d="M9 17.5c0 1.5-1 2.5-1.5 3.5M12 17.5c0 1.8-.5 3-1 4M15 17.5c0 1.5 1 2.5 1.5 3.5" stroke="currentColor" stroke-width="2" stroke-linecap="round"/>
</svg>
